<?xml version="1.0" encoding="UTF-8"?><svg id="Layer_2" xmlns="http://www.w3.org/2000/svg" viewBox="0 0 480.89 512.34"><g id="Layer_1-2"><path d="M475.71,112.2c-1.99-.75-4-1.47-5.92-2.4L244.31,.82l-.02,.03c-1.71-1-3.87-1.16-5.79-.24L8.31,110.95c-.45,.22-2.66,1.23-3.48,1.57-4.41,2.16-4.83,3.07-4.83,7.17V392.32c0,2.21,.9,4.21,2.35,5.66,.01,.02,.03,.03,.05,.05,.51,.45,1.09,.85,1.73,1.16l1.71,.83,229.46,111.56c1.62,.8,3.39,.95,5.03,.56,.01,0,.02,0,.03-.01,.43-.1,.86-.24,1.27-.42l.07-.03,.04-.02,.6-.29,1.54-.73,.02-.02,230.97-110.55h.02l2.79-1.34c.31-.23,.6-.48,.87-.75,.92-.92,1.61-2.05,1.99-3.32h0c.23-.75,.35-1.53,.35-2.34V119.69c0-3.42-2.15-6.35-5.18-7.49ZM241.17,17.08l212.74,102.82-60.72,29.07L180.49,46.16l60.68-29.08Zm-79.14,37.93l212.68,102.8-43.41,20.78L118.64,75.81l43.39-20.8Zm218.42,117.79v77.79l-39.59,18.95v-77.79l39.59-18.95Zm-140.22,50.19l-20.17-9.81c-3.98-1.93-8.76-.28-10.69,3.7-1.94,3.97-.28,8.76,3.69,10.69l18.35,8.92v255.41L16,387.17V132.22l164.57,80.01c3.97,1.93,8.76,.27,10.69-3.7,.55-1.13,.81-2.32,.81-3.49,0-2.97-1.66-5.82-4.51-7.2L26.96,119.75l73.23-35.1,224.67,108.59v89.25c0,3.15,1.82,5.88,4.47,7.18h.01c1.06,.52,2.25,.82,3.52,.82,.46,0,.91-.04,1.35-.11l.54-.18,3.14-1.5h.01l52.14-24.96h.02l2.83-1.36c.35-.17,.68-.37,.97-.6,.05-.04,.1-.08,.15-.13,.03-.03,.07-.06,.1-.09s.06-.07,.09-.1c.02-.02,.05-.05,.07-.06,.35-.38,.68-.8,.96-1.25,.01-.02,.02-.04,.04-.06,.75-1.22,1.18-2.65,1.18-4.19v-90.76l68.44-32.75v254.72l-217.48,104.1V237.48l52.59-25.17c3.98-1.91,5.67-6.68,3.76-10.67-1.91-3.98-6.68-5.67-10.67-3.76l-52.68,25.21-.18-.1Z" fill="#fff"/><path d="M236.39,226.04c-.48-.12-.98-.19-1.5-.21l.63-.3c.31,.15,.6,.32,.87,.51Z" fill="#fff"/><path d="M236.39,226.04c-.48-.12-.98-.19-1.5-.21l.63-.3c.31,.15,.6,.32,.87,.51Z" fill="#fff"/><path d="M333,291.14c-.99,.8-2.18,1.38-3.48,1.64,.12-.04,.23-.09,.34-.14l3.14-1.5Z" fill="#fff"/><path d="M388.97,264.22c-1.04,.98-2.35,1.66-3.8,1.96l2.83-1.36c.35-.17,.68-.37,.97-.6Z" fill="#fff"/><path d="M329.52,292.78c-1.73,.69-3.65,.39-5.07-.67,1.06,.52,2.25,.82,3.52,.82,.53,0,1.05-.05,1.55-.15Z" fill="#fff"/><path d="M390.34,262.59c-.24,.46-.57,.87-.96,1.25,.35-.38,.68-.8,.96-1.25Z" fill="#fff"/><path d="M108.14,347.01c0,1.17-.26,2.36-.81,3.49-1.93,3.98-6.72,5.63-10.69,3.7l-65.2-31.7c-3.97-1.93-5.63-6.72-3.7-10.69,1.94-3.97,6.72-5.63,10.7-3.7l65.19,31.7c2.85,1.38,4.51,4.23,4.51,7.2Z" fill="#fff"/><path d="M76.92,367.16c0,1.18-.26,2.37-.81,3.5-1.93,3.97-6.72,5.63-10.69,3.69l-33.62-16.34c-3.97-1.93-5.62-6.72-3.69-10.69,1.93-3.98,6.72-5.63,10.69-3.7l33.62,16.34c2.84,1.39,4.5,4.23,4.5,7.2Z" fill="#fff"/></g></svg>