<svg id="Layer_2" xmlns="http://www.w3.org/2000/svg" viewBox="0 0 412.82 409.91"><g id="Layer_1-2"><g><path d="M403.19,33.99H232.15C228.04,14.57,210.81,0,190.16,0s-37.88,14.57-41.99,33.99H8.67c-2.39,0-4.56,.97-6.13,2.54-1.57,1.57-2.54,3.74-2.54,6.13,0,4.79,3.88,8.67,8.67,8.67H148.06c3.91,19.68,21.28,34.51,42.1,34.51s38.19-14.83,42.1-34.51h170.93c2.39,0,4.56-.97,6.13-2.54s2.54-3.74,2.54-6.13c0-4.79-3.88-8.67-8.67-8.67Zm-212.63,34.41c-11.18,0-20.69-7.12-24.24-17.07-.97-2.71-1.5-5.63-1.5-8.67s.53-5.96,1.5-8.67c3.55-9.95,13.06-17.07,24.24-17.07s20.69,7.12,24.24,17.07c.97,2.71,1.5,5.63,1.5,8.67s-.53,5.96-1.5,8.67c-3.55,9.95-13.06,17.07-24.24,17.07Z" fill="#fff"/><path d="M403.19,196.03h-52.13c-4.11-19.42-21.34-33.99-41.99-33.99s-37.88,14.57-41.99,33.99l-256.56,.26c-2.39,0-4.56,.97-6.13,2.54-1.57,1.57-2.54,3.74-2.54,6.13,0,4.79,3.88,8.67,8.67,8.67l256.45-.26c3.91,19.68,21.28,34.51,42.1,34.51s38.19-14.83,42.1-34.51h52.02c2.39,0,4.56-.97,6.13-2.54s2.54-3.74,2.54-6.13c0-4.79-3.88-8.67-8.67-8.67Zm-93.72,34.41c-11.18,0-20.69-7.12-24.24-17.07-.97-2.71-1.5-5.63-1.5-8.67s.53-5.96,1.5-8.67c3.55-9.95,13.06-17.07,24.24-17.07s20.69,7.12,24.24,17.07c.97,2.71,1.5,5.63,1.5,8.67s-.53,5.96-1.5,8.67c-3.55,9.95-13.06,17.07-24.24,17.07Z" fill="#fff"/><path d="M404.15,358.32l-257.63-.26c-4.11-19.42-21.34-33.99-41.99-33.99s-37.88,14.57-41.99,33.99l-51.57,.26c-2.39,0-4.56,.97-6.13,2.54-1.57,1.57-2.54,3.74-2.54,6.13,0,4.79,3.88,8.67,8.67,8.67l51.46-.26c3.91,19.68,21.28,34.51,42.1,34.51s38.19-14.83,42.1-34.51l257.52,.26c2.39,0,4.56-.97,6.13-2.54s2.54-3.74,2.54-6.13c0-4.79-3.88-8.67-8.67-8.67Zm-299.22,34.15c-11.18,0-20.69-7.12-24.24-17.07-.97-2.71-1.5-5.63-1.5-8.67s.53-5.96,1.5-8.67c3.55-9.95,13.06-17.07,24.24-17.07s20.69,7.12,24.24,17.07c.97,2.71,1.5,5.63,1.5,8.67s-.53,5.96-1.5,8.67c-3.55,9.95-13.06,17.07-24.24,17.07Z" fill="#fff"/></g></g></svg>