<?xml version="1.0" encoding="UTF-8"?><svg id="Layer_2" xmlns="http://www.w3.org/2000/svg" viewBox="0 0 383.39 305.21"><g id="Layer_1-2"><path d="M381.92,84.23L332.55,4.62c-1.79-2.87-4.93-4.62-8.32-4.62H59.62c-3.34,0-6.45,1.7-8.24,4.51L1.54,82.41c-2.35,3.68-1.99,8.46,.89,11.74l182.6,207.74c3.9,4.43,10.8,4.43,14.7,0L380.95,95.84c2.85-3.23,3.24-7.95,.97-11.61ZM313.3,11.63l-45.77,68.54L206.19,11.63h107.11Zm-59.26,71.65h-124.29L191.9,15.1l62.14,68.18ZM177.75,11.63l-61.63,67.5L70.86,11.63h106.89Zm-118.52,4.69l45.48,66.96H17.23L59.23,16.32ZM20.3,95.88H112.56l62.52,174.07L20.3,95.88Zm171.75,185.18L125.01,95.88h134.74l-67.7,185.18Zm16.51-10.52l64.25-174.66h91.01l-155.26,174.66Zm71.71-187.26l44.14-66.96,42.6,66.96h-86.74Z" fill="#fff"/></g></svg>