<?xml version="1.0" encoding="UTF-8"?><svg id="Layer_2" xmlns="http://www.w3.org/2000/svg" viewBox="0 0 447.82 449.24"><g id="Layer_1-2"><path d="M224.14,134.45c-50.01,0-90.56,40.55-90.56,90.56s40.55,90.57,90.56,90.57,90.57-40.55,90.57-90.57-40.55-90.56-90.57-90.56Zm0,163.24c-40.44,0-73.23-32.79-73.23-73.23s32.79-73.23,73.23-73.23,73.23,32.79,73.23,73.23-32.78,73.23-73.23,73.23Z" fill="#fff"/><path d="M383.54,212.07s-5.11-14.66-15.22-15.89c-10.11-1.22-24.44-2.55-24.44-2.55,0,0-4.67-20.26-12.89-32.08,0,0,14.78-17.48,16.67-23.14,1.88-5.67,1.44-11.34-.78-15.12-2.22-3.77-17.22-20.22-22.89-22.22s-11.56-2.44-17.56,1.22c-6,3.67-20,15.67-20,15.67,0,0-14.44-10.67-31.22-12.89,0,0-2.11-20.78-3.78-27.22-1.66-6.44-10.22-12.44-17.66-12.56-7.45-.11-21.89,0-21.89,0,0,0-13.34,3.23-15.67,12.89-2.33,9.67-3.22,26.11-3.22,26.11,0,0-19.11,4.67-31.11,13.78l-22.15-16.96s-9.93-4.59-17.48,.89c-7.56,5.48-21.04,20.29-22.22,24-1.19,3.7-1.78,11.55,1.33,15.26,3.11,3.7,16.3,20.29,16.3,20.29,0,0-11.41,16.3-13.04,31.86l-25.78,2.81s-13.33,5.93-13.93,17.93c-.59,12,0,22.96,0,22.96,0,0,2.55,14.07,15.72,15.7,13.17,1.63,23.69,2.37,23.69,2.37,0,0,5.04,23.11,13.34,31.71l-17.34,23.4s-4.44,9.34,3.71,18.82c8.14,9.48,15.11,17.33,21.92,19.41,6.82,2.07,13.63-.45,16.59-2.37,2.97-1.93,19.12-15.11,19.12-15.11,0,0,15.4,10.51,30.96,12.59,0,0,2.81,25.48,4.29,28.15,1.49,2.66,5.63,10.96,15.56,12,9.93,1.03,24.15,0,24.15,0,0,0,14.37-3.71,16-15.26,1.63-11.56,2.81-24.3,2.81-24.3,0,0,24.45-6.15,31.11-13.37,0,0,17.23,15.89,24.89,17.78,7.67,1.89,14.56-1.78,14.56-1.78,0,0,17.33-14.67,21.89-23.89,4.55-9.22-3.11-19.55-17.22-35.78,0,0,8.33-10.81,12.92-31.55,0,0,22.08-1.89,27.85-4,5.78-2.11,11.67-10.67,12.11-16.11,.45-5.45,0-23.45,0-23.45Zm-16.55,20.74c-.15,3.71,.74,2.08-10.37,4.74-11.11,2.67-27.11-1.63-28,12-.89,13.63-15.41,33.52-16.19,37.52-.77,4,16.19,23.74,18.63,26.41,2.45,2.67,1.56,4.22,1.56,4.22,0,0-13.85,15.11-15.56,15.63-1.7,.52-12.59-7.33-21.03-15.63-8.45-8.29-13.49-3.04-13.49-3.04-18.81,12-32.14,13.41-38.96,16.23-6.81,2.81-5.92,19.85-6.07,26.96-.15,7.11-2.82,9.19-2.82,9.19,0,0-13.92,.88-19.85,0-5.93-.89-3.85-21.78-5.93-27.56-2.07-5.78,1.19-8.3-13.03-11.26-14.22-2.96-29.04-14.67-34.37-15.56-5.34-.88-25.93,19.86-29.19,20.6s-16.59-15.41-17.03-16.6c-.45-1.18,9.92-12.88,13.18-17.18,3.26-4.3,10.07-9.63,5.78-15.26-4.3-5.63-15.85-32.59-16-38.96-.15-6.37-16-6.37-27.56-6.82-11.55-.44-9.92-5.33-9.92-5.33v-17.93s-2.82-3.55,17.18-4.59,21.19-5.04,21.04-7.26c-.15-2.22,2.67-12.29,4.89-18.37,2.22-6.07,10.22-18.22,11.26-23.55,1.03-5.34-7.41-13.93-13.63-20.3-6.22-6.37-5.78-10.22-5.78-10.22l15.56-15.41s15.25,10.22,18.07,13.33c2.81,3.11,11.85,10.23,15.41,6.37,3.55-3.85,27.7-14.22,37.18-15.7,9.48-1.48,7.41-12.59,7.41-12.59,1.04-29.93,5.93-25.78,5.93-25.78h15.4c6.82,.89,6.52,4.15,6.52,4.15,4.15,18.66-.59,32.29,10.67,33.78,11.26,1.48,29.03,12.74,37.63,15.41,8.59,2.67,13.03-4.45,18.96-9.79,5.93-5.33,12.74-9.03,12.74-9.03,0,0,15.11,13.78,15.33,16.22,.23,2.44-10.88,14.22-14,18.44-3.11,4.23-7.77,5.78-3.83,13.78,3.94,8,10.5,21.56,13.39,34.22,2.89,12.67,10.67,10.89,10.67,10.89,18,2.89,28.22,4.67,28.22,4.67,0,0,.15,15.26,0,18.96Z" fill="#fff"/><path d="M388.62,9.26s-2.82,55.7-3.67,63.7c-.86,8-7.59,7.11-7.59,7.11,0,0-57.48,3.56-61.48,3.85-4,.3-6.82-4-7.41-8.29-.59-4.3,5.93-8.3,5.93-8.3l42.97-2.69c-.2-.19-.4-.38-.6-.57-5.48-5.33-12.11-9.62-12.89-10.22-15.71-12-66.42-41.18-132.89-36.89-84.02,5.42-134.91,60.77-142.67,69.48-9.02,10.13-54.47,63.18-52.74,142.22,.88,39.96,13.46,70.75,21.93,87.71,0,0,1.85,5.18-1.26,8.22,0,0-7.03,6.67-12.37-1.7-8.5-17.14-35.96-77.77-17.78-152.89,2.1-8.69,26.51-102.64,119.11-147.56C209.2-18.29,312.54-.87,368.32,52.96c.44,.43,1.03,.96,1.72,1.58,.59-12.23,2.05-42.45,2.28-44.69,.3-2.81,3.56-6.96,8.74-6.52,5.19,.45,7.56,5.93,7.56,5.93Z" fill="#fff"/><path d="M61.86,443.13c-1.55-1.98-2.24-4.49-2.15-6.99,.38-10.71,1.91-53.31,2.54-60.3,.73-8.01,7.48-7.23,7.48-7.23,0,0,58.41-3.3,62.4-3.66,3.99-.36,6.88,3.89,7.54,8.17,.66,4.29-5.8,8.39-5.8,8.39l-43.92,2.2c.2,.19,.41,.37,.61,.56,5.56,5.24,12.26,9.43,13.05,10.02,15.9,11.75,69.49,44.5,135.88,39.16,83.92-6.74,133.94-62.89,141.56-71.72,8.86-10.27,54.06-68.72,51.08-147.73-1.51-39.94-14.83-71.26-23.57-88.09,0,0-1.93-5.15,1.13-8.24,0,0,6.92-6.78,12.4,1.5,8.77,17,37.44,77.93,20.44,153.32-1.96,8.72-25.48,107.74-117.36,154.11-83.34,42.05-189.37,21.89-245.99-31.06-.45-.42-1.04-.94-1.74-1.55-.4,12.24-1.38,42.48-1.58,44.72-.26,2.81-4.15,7.47-9.33,7.11-2.08-.15-3.6-1.34-4.68-2.72Z" fill="#fff"/></g></svg>