<svg xmlns:xlink="http://www.w3.org/1999/xlink" xmlns="http://www.w3.org/2000/svg" fill="none" viewBox="0 0 145 35" width="145"  height="35" ><path fill="#5A31F4" d="M37.01 10.908c-1.158-2.43-3.354-4.001-6.664-4.001a6.635 6.635 0 00-5.213 2.68l-.12.147V.208A.208.208 0 0024.804 0h-4.68a.207.207 0 00-.204.208v27.325a.204.204 0 00.204.204h5.012a.208.208 0 00.208-.203V15.882c0-2.264 1.51-3.868 3.925-3.868 2.642 0 3.31 2.174 3.31 4.39v11.13a.204.204 0 00.204.203h5a.208.208 0 00.208-.203V15.739c0-.404 0-.8-.053-1.185a10.428 10.428 0 00-.928-3.646zM11.983 14.958s-2.55-.6-3.49-.842c-.94-.242-2.582-.755-2.582-1.997 0-1.241 1.324-1.638 2.668-1.638s2.838.325 2.955 1.816a.215.215 0 00.215.196l4.941-.019a.21.21 0 00.211-.226C16.596 7.477 12.41 5.77 8.55 5.77c-4.578 0-7.926 3.02-7.926 6.348 0 2.431.687 4.71 6.088 6.296.947.275 2.234.634 3.359.947 1.351.378 2.08.948 2.08 1.846 0 1.042-1.51 1.766-2.993 1.766-2.148 0-3.673-.796-3.797-2.227a.215.215 0 00-.216-.188l-4.929.022a.215.215 0 00-.215.223c.227 4.503 4.575 6.93 8.628 6.93 6.039 0 8.768-3.397 8.768-6.579.007-1.495-.336-4.899-5.413-6.197zM75.542 6.9c-2.51 0-4.612 1.388-5.967 3.064V7.095a.204.204 0 00-.2-.203h-4.688a.204.204 0 00-.204.203v26.798a.204.204 0 00.204.2h5.016a.2.2 0 00.2-.2v-8.81h.076c.796 1.216 2.974 2.673 5.82 2.673 5.352 0 9.813-4.439 9.813-10.436.004-5.756-4.435-10.42-10.07-10.42zm-.464 15.75a5.318 5.318 0 115.186-5.33 5.245 5.245 0 01-5.186 5.33zM49.64 5.722c-4.677 0-7.01 1.59-8.882 2.861l-.056.038a.464.464 0 00-.14.615l1.85 3.185a.469.469 0 00.705.125l.148-.12c.962-.808 2.506-1.888 6.242-2.182 2.08-.166 3.877.377 5.201 1.615 1.457 1.344 2.329 3.514 2.329 5.805 0 4.216-2.483 6.865-6.473 6.918-3.287-.019-5.495-1.732-5.495-4.265 0-1.343.607-2.219 1.792-3.095a.46.46 0 00.14-.588l-1.66-3.14a.486.486 0 00-.485-.25.467.467 0 00-.184.065c-1.864 1.105-4.151 3.128-4.027 7.016.151 4.948 4.265 8.726 9.613 8.88h.634c6.356-.207 10.946-4.925 10.946-11.322 0-5.873-4.28-12.16-12.199-12.16zM105.378 8.741h-3.186a.286.286 0 00-.283.283v6.685a.283.283 0 00.283.279h3.186c1.94 0 3.37-1.529 3.37-3.623 0-2.095-1.43-3.624-3.37-3.624zM115.165 20.566c0 .97.819 1.51 2.246 1.51 1.94 0 3.087-1.05 3.087-2.91v-.537l-2.906.151c-1.532.076-2.427.714-2.427 1.786z"/><path fill="#5A31F4" d="M138.754.06h-42.8a5.344 5.344 0 00-5.345 5.349v23.43a5.348 5.348 0 005.345 5.349h42.8a5.35 5.35 0 005.363-5.34V5.415a5.336 5.336 0 00-1.568-3.793 5.34 5.34 0 00-3.795-1.562zM105.54 18.62h-3.366a.283.283 0 00-.283.283v4.793a.283.283 0 01-.283.283h-2.37a.287.287 0 01-.284-.283V6.405a.283.283 0 01.283-.283h6.303c3.571 0 6.126 2.6 6.126 6.25s-2.536 6.254-6.107 6.254l-.019-.007zm17.74 5.072a.293.293 0 01-.082.203.285.285 0 01-.201.084h-2.239a.287.287 0 01-.201-.084.288.288 0 01-.082-.203v-.517a.21.21 0 00-.266-.22.212.212 0 00-.111.073c-.668.729-1.755 1.257-3.488 1.257-2.551 0-4.238-1.329-4.238-3.623a3.36 3.36 0 011.404-2.884c.921-.69 2.348-1.05 4.465-1.132l2.246-.076v-.656c0-1.325-.891-1.888-2.322-1.888-1.43 0-2.332.506-2.543 1.333a.274.274 0 01-.272.196h-2.216a.278.278 0 01-.274-.2.274.274 0 01-.009-.12c.332-1.963 1.955-3.454 5.416-3.454 3.677 0 5.001 1.71 5.001 4.974l.012 6.937zm13.942-11.217l-4.982 13.29c-1.132 3.087-3.114 3.88-5.284 3.88-.409.01-.817-.04-1.212-.148a.294.294 0 01-.155-.103.294.294 0 01-.06-.176v-2.02a.287.287 0 01.34-.282c.342.065.689.097 1.038.098a2.685 2.685 0 002.706-1.914l.147-.464a.277.277 0 000-.193l-4.657-11.964a.273.273 0 01-.012-.133.293.293 0 01.15-.212.286.286 0 01.13-.032h2.264a.289.289 0 01.268.185l3.163 8.439a.289.289 0 00.272.187.291.291 0 00.271-.187l2.744-8.417a.286.286 0 01.272-.196h2.321a.278.278 0 01.231.115.288.288 0 01.045.255v-.008z"/></svg>